<svg width="18" height="18" viewBox="0 0 18 18" fill="none" xmlns="http://www.w3.org/2000/svg">
<path d="M17.25 9C17.25 13.5563 13.5563 17.25 9 17.25C4.44365 17.25 0.75 13.5563 0.75 9C0.75 4.44365 4.44365 0.75 9 0.75C13.5563 0.75 17.25 4.44365 17.25 9Z" stroke="#6D6D6D" stroke-width="1.5" stroke-linecap="round" stroke-linejoin="round"/>
<path fill-rule="evenodd" clip-rule="evenodd" d="M9.74891 5.18162C9.74891 4.76741 9.41312 4.43162 8.99891 4.43162C8.5847 4.43162 8.24891 4.76741 8.24891 5.18162L8.24891 8.25L5.18053 8.25C4.76632 8.25 4.43053 8.58579 4.43053 9C4.43053 9.41421 4.76632 9.75 5.18053 9.75L8.24891 9.75L8.24891 12.8184C8.24891 13.2326 8.5847 13.5684 8.99891 13.5684C9.41312 13.5684 9.74891 13.2326 9.74891 12.8184L9.74891 9.75H12.8173C13.2315 9.75 13.5673 9.41421 13.5673 9C13.5673 8.58579 13.2315 8.25 12.8173 8.25H9.74891L9.74891 5.18162Z" fill="#6D6D6D"/>
</svg>
