<svg width="18" height="18" viewBox="0 0 18 18" fill="none" xmlns="http://www.w3.org/2000/svg">
<path d="M17.25 9C17.25 13.5563 13.5563 17.25 9 17.25C4.44365 17.25 0.75 13.5563 0.75 9C0.75 4.44365 4.44365 0.75 9 0.75C13.5563 0.75 17.25 4.44365 17.25 9Z" stroke="#6D6D6D" stroke-width="1.5" stroke-linecap="round" stroke-linejoin="round"/>
<path fill-rule="evenodd" clip-rule="evenodd" d="M12.2301 6.83013C12.523 6.53724 12.523 6.06237 12.2301 5.76947C11.9372 5.47658 11.4624 5.47658 11.1695 5.76947L8.9998 7.93914L6.83013 5.76947C6.53724 5.47658 6.06237 5.47658 5.76947 5.76947C5.47658 6.06237 5.47658 6.53724 5.76947 6.83013L7.93914 8.9998L5.76947 11.1695C5.47658 11.4624 5.47658 11.9372 5.76947 12.2301C6.06237 12.523 6.53724 12.523 6.83013 12.2301L8.9998 10.0605L11.1695 12.2301C11.4624 12.523 11.9372 12.523 12.2301 12.2301C12.523 11.9372 12.523 11.4624 12.2301 11.1695L10.0605 8.9998L12.2301 6.83013Z" fill="#6D6D6D"/>
</svg>
