<svg width="23" height="20" viewBox="0 0 23 20" fill="none" xmlns="http://www.w3.org/2000/svg">
<path d="M17.0307 18.9995V16.9995C17.0307 15.9386 16.6176 14.9212 15.8822 14.1711C15.1469 13.4209 14.1495 12.9995 13.1096 12.9995H5.26749C4.22756 12.9995 3.23023 13.4209 2.49489 14.1711C1.75955 14.9212 1.34644 15.9386 1.34644 16.9995V18.9995" stroke="#000005" stroke-width="2" stroke-linecap="round" stroke-linejoin="round"/>
<path d="M9.1891 8.99991C11.3546 8.99991 13.1101 7.20907 13.1101 4.99995C13.1101 2.79084 11.3546 1 9.1891 1C7.02357 1 5.26807 2.79084 5.26807 4.99995C5.26807 7.20907 7.02357 8.99991 9.1891 8.99991Z" stroke="#000005" stroke-width="2" stroke-linecap="round" stroke-linejoin="round"/>
<path d="M21.9319 18.9998V16.9999C21.9312 16.1136 21.6421 15.2526 21.1098 14.5522C20.5775 13.8517 19.8322 13.3514 18.991 13.1299" stroke="#000005" stroke-width="2" stroke-linecap="round" stroke-linejoin="round"/>
<path d="M15.0701 1.12988C15.9135 1.35018 16.6611 1.85058 17.1949 2.55218C17.7288 3.25379 18.0186 4.11669 18.0186 5.00485C18.0186 5.89302 17.7288 6.75592 17.1949 7.45752C16.6611 8.15913 15.9135 8.65952 15.0701 8.87982" stroke="#000005" stroke-width="2" stroke-linecap="round" stroke-linejoin="round"/>
</svg>
